<svg id="elMgSax7iYR1" xmlns="http://www.w3.org/2000/svg" xmlns:xlink="http://www.w3.org/1999/xlink" viewBox="0 0 1050.8619 704.35284" shape-rendering="geometricPrecision" text-rendering="geometricPrecision">
<style><![CDATA[
#elMgSax7iYR2 {animation: elMgSax7iYR2_c_o 2000ms linear infinite normal forwards}@keyframes elMgSax7iYR2_c_o { 0% {opacity: 1} 50% {opacity: 0.3} 100% {opacity: 1}} #elMgSax7iYR4_to {animation: elMgSax7iYR4_to__to 2000ms linear infinite normal forwards}@keyframes elMgSax7iYR4_to__to { 0% {transform: translate(-74.5691px,-97.8236px)} 50% {transform: translate(-114px,-49px)} 100% {transform: translate(-74.5691px,-97.8236px)}} #elMgSax7iYR4_tr {animation: elMgSax7iYR4_tr__tr 2000ms linear infinite normal forwards}@keyframes elMgSax7iYR4_tr__tr { 0% {transform: rotate(0deg)} 50% {transform: rotate(-4deg)} 100% {transform: rotate(0deg)}} #elMgSax7iYR8_to {animation: elMgSax7iYR8_to__to 2000ms linear infinite normal forwards}@keyframes elMgSax7iYR8_to__to { 0% {transform: translate(820.750461px,586.274623px)} 50% {transform: translate(808px,586.274623px)} 100% {transform: translate(820.750461px,586.274623px)}} #elMgSax7iYR8_tr {animation: elMgSax7iYR8_tr__tr 2000ms linear infinite normal forwards}@keyframes elMgSax7iYR8_tr__tr { 0% {transform: rotate(0deg)} 50% {transform: rotate(11deg)} 100% {transform: rotate(0deg)}} #elMgSax7iYR10_to {animation: elMgSax7iYR10_to__to 2000ms linear infinite normal forwards}@keyframes elMgSax7iYR10_to__to { 0% {transform: translate(727.821533px,201.367302px)} 50% {transform: translate(717px,201px)} 100% {transform: translate(727.821533px,201.367302px)}} #elMgSax7iYR10_tr {animation: elMgSax7iYR10_tr__tr 2000ms linear infinite normal forwards}@keyframes elMgSax7iYR10_tr__tr { 0% {transform: rotate(0deg)} 50% {transform: rotate(-6deg)} 100% {transform: rotate(0deg)}} #elMgSax7iYR15_to {animation: elMgSax7iYR15_to__to 2000ms linear infinite normal forwards}@keyframes elMgSax7iYR15_to__to { 0% {transform: translate(245.161073px,277.392091px)} 50% {transform: translate(262px,295px)} 100% {transform: translate(245.161073px,277.392091px)}} #elMgSax7iYR15_tr {animation: elMgSax7iYR15_tr__tr 2000ms linear infinite normal forwards}@keyframes elMgSax7iYR15_tr__tr { 0% {transform: rotate(0deg)} 50% {transform: rotate(-3deg);animation-timing-function: cubic-bezier(0.42,0,1,1)} 100% {transform: rotate(0deg)}} #elMgSax7iYR22 {animation: elMgSax7iYR22_c_o 2000ms linear infinite normal forwards}@keyframes elMgSax7iYR22_c_o { 0% {opacity: 0.35} 25% {opacity: 1} 50% {opacity: 0.35} 75% {opacity: 1} 100% {opacity: 0.35}} #elMgSax7iYR24 {animation: elMgSax7iYR24_c_o 2000ms linear infinite normal forwards}@keyframes elMgSax7iYR24_c_o { 0% {opacity: 1} 25% {opacity: 0.3} 50% {opacity: 1} 75% {opacity: 0.3} 100% {opacity: 1}} #elMgSax7iYR26 {animation: elMgSax7iYR26_c_o 2000ms linear infinite normal forwards}@keyframes elMgSax7iYR26_c_o { 0% {opacity: 0.45} 25% {opacity: 1} 50% {opacity: 0.45} 75% {opacity: 1} 100% {opacity: 0.45}} #elMgSax7iYR28_to {animation: elMgSax7iYR28_to__to 2000ms linear infinite normal forwards}@keyframes elMgSax7iYR28_to__to { 0% {transform: translate(-74.5691px,-97.8236px)} 50% {transform: translate(-56px,-81px)} 100% {transform: translate(-74.5691px,-97.8236px)}} #elMgSax7iYR28_tr {animation: elMgSax7iYR28_tr__tr 2000ms linear infinite normal forwards}@keyframes elMgSax7iYR28_tr__tr { 0% {transform: rotate(0deg)} 50% {transform: rotate(1deg)} 100% {transform: rotate(0deg)}}
]]></style>
<path id="elMgSax7iYR2" d="M1125.431,472.17637c0,142.47-90.2998,263.86-216.77978,310.05-19.240842,7.040617-39.101963,12.253631-59.32032,15.57-55.622197,9.122444-112.650884,3.943327-165.71972-15.05-127.28028-45.81-218.24024-167.61-218.18018-310.64c0-182.18,147.75-329.93,330-329.93c68.87799-.100179,136.045719,21.448316,192.01026,61.6c83.54974,59.86002,137.98974,157.76999,137.98974,268.4Z" transform="translate(-74.5691-97.8236)" fill="#e5e5e5"/><path d="M908.65117,782.22636c-19.240842,7.040617-39.101963,12.253631-59.32032,15.57-55.622197,9.122444-112.650884,3.943327-165.71972-15.05l15.23974-61.15.91992-3.67l31.1001.12l156.24024.56l2,5.91Z" transform="translate(-74.5691-97.8236)" fill="#2f2e41"/><g id="elMgSax7iYR4_to" transform="translate(-74.5691,-97.8236)"><g id="elMgSax7iYR4_tr" transform="rotate(0)"><path d="M482.17805,625.61438c1.089975,1.119607,2.090067,2.32333,2.991,3.6l140.109-3.428l16.345-29.868l48.3,18.776-23.8,55.687c-3.949123,9.240548-13.523405,14.76552-23.5,13.561l-158.3-19.123c-7.645464,9.678872-20.482323,13.617063-32.24028,9.890925s-19.98351-14.339082-20.658802-26.65483s6.340589-23.764404,17.620663-28.753753s24.470556-2.478277,33.128419,6.306658Z" transform="translate(0,0)" fill="#9f616a"/></g></g><g><path d="M670.75807,455.06457l65.569-21.489l19.258-26.411l93.716,5.546l13.759,30.82l49.972,23.613-7.68,142.624-13.138,133.477c-67.558-34.983-193.63907-8.31221-194.74307-7.87819Z" transform="translate(-74.5691-97.8236)" fill="#c9122d"/><path d="M684.775,648.11407l-66.694-26.684.284-1.187c.286-1.2,28.672-119.817,32.441-138.879c3.926-19.859,18.271-25.35,18.88-25.573l.445-.164l26.394,8.034l11.592,91.081Z" transform="translate(-74.5691-97.8236)" fill="#c9122d"/><g id="elMgSax7iYR8_to" transform="translate(820.750461,586.274623)"><g id="elMgSax7iYR8_tr" transform="rotate(0)"><path d="M828.7801,737.37719c1.56336-.037179,3.127215.049089,4.677.258l92.747-105.072-10.788-32.286l46.608-22.652l24.655,55.313c4.091426,9.178733,1.633012,19.956398-6.034,26.453l-121.65,103.073c1.897655,12.187055-3.943579,24.276852-14.670605,30.364242s-24.101574,4.902194-33.590968-2.976689-13.113607-20.807467-9.102422-32.470906s14.820802-19.628072,27.148995-20.003647Z" transform="translate(-895.151952,-681.573506)" fill="#9f616a"/></g></g><path d="M918.801,642.79113l-38.689-91.006l15.09-63.391l16.259-20.541c2.40753-1.02939,5.136039-1.004006,7.524.07c6,2.413,11.1,9.81,15.177,21.984l36.259,103.279Z" transform="translate(-74.5691-97.8236)" fill="#c9122d"/><g id="elMgSax7iYR10_to" transform="translate(727.821533,201.367302)"><g id="elMgSax7iYR10_tr" transform="rotate(0)"><g transform="translate(-727.821533,-201.367302)"><path d="M718.072,373.4422v-68.61c-.108816-32.846105,17.313822-63.255211,45.704976-79.772502s63.437531-16.633395,91.9375-.30458s46.123709,46.621817,46.232524,79.467922q.001.30455,0,.60916v68.61c-.007715,6.817518-5.532482,12.342285-12.35,12.35h-159.175c-6.817518-.007715-12.342285-5.532482-12.35-12.35Z" transform="translate(-82.187966-97.8236)" fill="#2f2e41"/><circle r="67.405" transform="translate(716.548 218.965)" fill="#9f616a"/><path d="M784.484,393.508c-2.778333-3.762259-3.154247-8.784033-.967-12.918c14.541-27.658,34.9-78.765,7.877-110.283l-1.938-2.262h78.456v117.79L796.641,398.41c-.721343.12769-1.452443.192267-2.185.193-3.94688.000102-7.654064-1.893846-9.967-5.092Z" transform="translate(-74.5691-97.8236)" fill="#2f2e41"/><path d="M696.322,310.32116c.04519-40.14728,32.57972-72.68181,72.727-72.727h13.723c40.147117.045191,72.681361,32.579882,72.726,72.727v1.372h-29l-9.891-27.7-1.978,27.7h-14.986l-4.99-13.974-1,13.974h-97.331Z" transform="translate(-74.5691-97.8236)" fill="#2f2e41"/></g></g></g></g><g id="elMgSax7iYR15_to" transform="translate(245.161073,277.392091)"><g id="elMgSax7iYR15_tr" transform="rotate(0)"><g transform="translate(-245.161073,-277.392091)"><g transform="translate(.000001 0.000001)"><g><rect width="286.651" height="324.355" rx="0" ry="0" fill="#e6e6e6"/><rect width="275.928" height="310.632" rx="0" ry="0" transform="translate(5.111 6.86201)" fill="#fff"/><circle r="15.467" transform="translate(143.326 290.982)" fill="#e6e6e6"/><rect width="88.837" height="9.088" rx="0" ry="0" transform="translate(51.876 116.819)" fill="#e6e6e6"/><rect id="elMgSax7iYR22" width="134.079" height="9.088" rx="0" ry="0" transform="translate(51.876 144.052)" opacity="0.35" fill="#c9122d"/><rect width="120.918" height="9.088" rx="0" ry="0" transform="translate(51.876 171.456)" fill="#e6e6e6"/><rect id="elMgSax7iYR24" width="186.723" height="9.088" rx="0" ry="0" transform="translate(51.876 198.136)" fill="#c9122d"/><rect width="152.175" height="9.088" rx="0" ry="0" transform="translate(53.817 223.545)" fill="#e6e6e6"/></g></g><g id="elMgSax7iYR26" opacity="0.45"><path d="M217.64577,123.08567c-18.165143-.000928-32.891655,14.724074-32.89259,32.889217s14.724061,32.89166,32.889203,32.892603s32.891667-14.724047,32.892617-32.88919v-.00172c.000008-8.723214-3.465272-17.08915-9.633516-23.257394s-14.53418-9.633524-23.257394-9.633516Zm0,9.86638c5.449062-.000022,9.866418,4.417298,9.86644,9.86636s-4.417298,9.866418-9.86636,9.86644-9.866418-4.417298-9.86644-9.86636v0c-.000006-5.449055,4.417305-9.866401,9.86636-9.86644Zm0,47.50128c-7.91376-.036219-15.299218-3.977634-19.73454-10.53178.15847-6.57819,13.15636-10.1991,19.73454-10.1991s19.57608,3.62091,19.73455,10.1991c-4.439969,6.548988-11.822488,10.488833-19.73455,10.53178Z" transform="translate(-74.5691-97.8236)" fill="#c9122d"/></g></g></g></g><g id="elMgSax7iYR28_to" transform="translate(-74.5691,-97.8236)"><g id="elMgSax7iYR28_tr" transform="rotate(0)"><path d="M218.02806,394.73458c13.55-24.831,46.01-40.556,72.563-26.382c11.952,6.379,21.453,17.663,24.469,31c3.5,15.493-3.875,30.266-11.488,43.282-4.132,7.065-8.66,13.986-12.08,21.438-3.541,7.717-6.072,16.636-3.406,25.031c2.4,7.563,8.418,13.064,15.008,17.107c7.273378,4.293166,15.009707,7.748532,23.061,10.3c16.573316,5.511914,34.054621,7.773602,51.485,6.661c8.662935-.58852,17.252861-1.977102,25.66-4.148c8.943-2.28,17.719-5.17,26.677-7.4c14.956-3.715,32.009-5.562,46.191,1.9c13.778,7.252,19.944,22.419,21.851,37.174c3.522,27.246-7.281,55.52-26.786,74.6-9.358,9.154-21.134,16.717-33.96,19.811-11.191,2.7-25.561,2.527-34.467-5.839-9.938-9.337-7.6-24.309.293-34.16c10.075-12.569,27.143-15.588,42.374-15.894c17.326-.348,34.636,2.232,51.952.628c8.452125-.657766,16.745441-2.658181,24.568-5.926c6.877084-3.024969,13.14986-7.269723,18.515-12.529c10.69-10.386,17.9-24.222,21.485-38.608c4.317-17.3,3.376-35.482.025-52.859-1.78608-8.960377-4.085875-17.810648-6.888-26.507-1.157-3.67-6.952-2.1-5.786,1.595c10.32,32.724,16.074,70.563-3.865,100.946-8.251344,12.884635-21.105697,22.137638-35.943,25.873-17.257,4.289-35.365,2.169-52.909,1.531-16.682-.607-35,.048-49.3,9.764-11.731,7.969-19.936,23.127-16.39,37.437c3.419,13.8,16.681,20.8,29.945,21.878c13.917,1.134,27.612-3.537,39.3-10.841c24.313-15.193,40.479-41.913,43.862-70.242c1.763-14.761-.031-30.661-6.725-44.059-3.527329-7.252761-9.017424-13.371306-15.847-17.661-6.81-4.175-14.676-6.23-22.576-6.957-17.948-1.653-35.192,4.509-52.218,9.223-8.697517,2.523305-17.612576,4.225095-26.628,5.083-8.749989.724968-17.550269.581602-26.272-.428-8.654306-1.021102-17.183292-2.91405-25.457-5.65-8.107657-2.506458-15.870433-6.015966-23.108-10.447-6.385-4.083-11.907-9.931-12.221-17.9-.341-8.641,4.016-16.724,8.16-24.009c8.187-14.391,18.3-28.467,20.435-45.314c1.87-14.737-4.06-29.262-14.3-39.773-10.374584-10.785202-24.774464-16.759031-39.737-16.485-15.193.435-29.74,7.042-40.915,17.189-5.542453,5.035614-10.206413,10.960196-13.8,17.53-1.851,3.391,3.328,6.422,5.181,3.028Z" transform="translate(0,0)" fill="#3f3d56"/></g></g></svg>
