<svg xmlns="http://www.w3.org/2000/svg" id="Layer_1" data-name="Layer 1" viewBox="0 0 796.98 447.07"><defs><style>.cls-1{fill:#f2f2f2}.cls-2{fill:#fff}.cls-3{fill:#ccc}.cls-4{fill:#c9122d}.cls-5{fill:#3f3d56}.cls-6{fill:#f0f0f0}.cls-7{fill:#e6e6e6}.cls-8{fill:#cacaca}.cls-9{fill:#e4e4e4}.cls-10{fill:#9e616a}.cls-11{fill:#2f2e41}.cls-12{fill:#ffb6b6}.cls-13{fill:#ffb8b8}</style></defs><path d="M773.26 258.51c-.46.87-.94 1.73-1.43 2.58-19 32.67-62.85 52.78-136.58 41.61-41.86-6.64-59.83 16.77-77.24 40.74-.3.41-.59.83-.9 1.24-18.22 25.14-36.27 50.35-81 41.7-47.44-7.77-76.53-46.48-80.84-87.66-.05-.5-.1-1-.14-1.51-2.41-26.7 5.62-54.29 25.82-75 12.2-12.53 29.47-19.13 47.26-18.82a86.57 86.57 0 0 0 16-1.1c1.17-.2 2.3-.42 3.4-.67 22.7-5.06 33.23-20.4 39.73-39.16.16-.44.31-.89.46-1.34 14.95-44.73 8.49-107.68 88.41-98 71.53 5.67 123.83 45.63 149.34 91.55l.75 1.39a139.46 139.46 0 0 1 14.73 40.74c.16.8.3 1.6.43 2.41 3.53 21.28 1.03 41.93-8.2 59.3Z" class="cls-1"/><path d="M766.28 156.03a109.69 109.69 0 0 1-17.34 16.37c-24.77 18.79-56.07 28.88-86.91 30.86a172.25 172.25 0 0 1-47.29-3.46c-15.79-3.4-30.85-9.32-45.42-16.21-14.17-6.71-27.92-14.26-42-21.16l.45-1.34c15.35 7.5 30.38 15.74 45.91 22.88 14.63 6.73 29.79 12.24 45.65 15.23a171.9 171.9 0 0 0 48 2.14c30.75-2.92 62.09-14.09 85.83-34.25a102.75 102.75 0 0 0 12.33-12.44Z" class="cls-2"/><path d="M660.04 52.55h-.11a72.23 72.23 0 0 0-.73 144.17 1.67 1.67 0 0 0 1.24-.44 1.63 1.63 0 0 0 .53-1.2l.76-140.87a1.65 1.65 0 0 0-1.64-1.66ZM717.38 173.09a2.17 2.17 0 0 1-1.5-.63l-48.78-49.31a2.16 2.16 0 0 1-.61-1.51l.37-67.4a2.07 2.07 0 0 1 .67-1.54 2.16 2.16 0 0 1 1.6-.57 72.71 72.71 0 0 1 49.86 120.23 2.15 2.15 0 0 1-1.53.73Z" class="cls-3"/><path d="M668.2 197.24a2.12 2.12 0 0 1-2.12-2.13l.33-60.82a2.13 2.13 0 0 1 2.13-2.11 2.17 2.17 0 0 1 1.5.63l42.56 43a2.11 2.11 0 0 1 0 3l-.07.08a72.94 72.94 0 0 1-44.18 18.32Z" class="cls-4"/><path d="M781.46 199.21a105.54 105.54 0 0 1-27.83 31.28c-24.77 18.78-56.07 28.87-86.91 30.85a172.25 172.25 0 0 1-47.29-3.47c-15.79-3.4-30.85-9.31-45.42-16.21-14.84-7-29.21-15-44-22.13s-29.91-13.25-45.81-17.28c1.17-.2 2.3-.42 3.4-.67 1 .28 2.08.56 3.11.86 31.1 8.88 58.5 26.19 87.68 39.6 14.63 6.74 29.79 12.24 45.65 15.23a171.52 171.52 0 0 0 48 2.15c30.75-2.93 62.08-14.1 85.83-34.26a99.79 99.79 0 0 0 23.16-28.36c.17.8.3 1.6.43 2.41ZM471.63 304.44c30.64 8.74 57.69 25.68 86.38 39-.3.41-.59.83-.9 1.24l-2.17-1c-14.84-7-29.21-15-44-22.13-15.07-7.3-30.57-13.51-46.85-17.54a209.68 209.68 0 0 0-68.85-5.27c-.05-.5-.1-1-.14-1.51a211.22 211.22 0 0 1 76.53 7.21Z" class="cls-2"/><path d="m651.8 273.27-46.44-.25a2.53 2.53 0 0 1 0-5.05l46.45.25a2.53 2.53 0 1 1 0 5.05Z" class="cls-3"/><path d="M591.46 275.46a5.3 5.3 0 1 1 5.33-5.27 5.29 5.29 0 0 1-5.33 5.27Z" class="cls-5"/><path d="m651.72 288.41-46.45-.25a2.53 2.53 0 0 1 0-5.05l46.44.25a2.53 2.53 0 0 1 0 5.05Z" class="cls-3"/><path d="M591.38 290.61a5.3 5.3 0 1 1 5.33-5.27 5.3 5.3 0 0 1-5.33 5.27Z" class="cls-5"/><path d="m651.63 303.56-46.43-.26a2.52 2.52 0 1 1 0-5l46.44.25a2.53 2.53 0 0 1 0 5.05Z" class="cls-3"/><path d="M591.3 305.8a5.3 5.3 0 1 1 5.33-5.27 5.3 5.3 0 0 1-5.33 5.27ZM665.07 285.89l19.18.11a.51.51 0 0 0 .51-.5l.65-118.59a.51.51 0 0 0-.51-.51.5.5 0 0 0-.5.5l-.64 118.09-18.68-.11a.51.51 0 0 0-.51.5.5.5 0 0 0 .5.51Z" class="cls-5"/><path d="M748.34 89.74a6.5 6.5 0 1 1 6-7 6.51 6.51 0 0 1-6 7Zm-.08-1a5.51 5.51 0 1 0-5.9-5.07 5.5 5.5 0 0 0 5.9 5.07Z" class="cls-3"/><circle cx="770.65" cy="81.37" r="4" class="cls-3" transform="rotate(-89.69 764.607 75.171)"/><circle cx="790.4" cy="68.89" r="2.1" class="cls-3" transform="rotate(-89.69 784.357 62.704)"/><path d="M717.07 217.64a6.51 6.51 0 1 1-1.79-9 6.52 6.52 0 0 1 1.79 9Zm-10-6.68a5.51 5.51 0 1 0 7.64-1.51 5.52 5.52 0 0 0-7.64 1.51Z" class="cls-3"/><circle cx="724.56" cy="249.81" r="4" class="cls-3" transform="rotate(-89.69 718.511 243.607)"/><circle cx="735.61" cy="270.38" r="2.1" class="cls-3" transform="rotate(-89.69 729.567 264.183)"/><path d="M556.11 107.49a6.5 6.5 0 1 1 8.71 3 6.53 6.53 0 0 1-8.71-3Zm10.79-5.29a5.51 5.51 0 1 0-2.52 7.37 5.53 5.53 0 0 0 2.52-7.37Z" class="cls-3"/><circle cx="534.98" cy="104.11" r="4" class="cls-3"/><circle cx="511.64" cy="103.35" r="2.1" class="cls-3"/><path d="M69.3 310.22v-67.7a3.65 3.65 0 0 1 7.29 0v67.7a3.65 3.65 0 0 1-7.29 0ZM60.58 310.22v-67.7a3.65 3.65 0 0 1 7.29 0v67.7a3.65 3.65 0 0 1-7.29 0ZM51.85 310.22v-67.7a3.65 3.65 0 0 1 7.29 0v67.7a3.65 3.65 0 0 1-7.29 0Z" class="cls-6"/><path d="M381.2 418.34a12.64 12.64 0 0 1-4.3-.75l-.22-.08.1-.47c-2.47-5-1.61-11.85 2.22-17.48 3.47-5.12 8.76-8.84 13.43-12.12a3.62 3.62 0 0 1 5.64 3.66l-1.66 8.56c-1.21 6.17-2.64 12-6.89 15.66a13 13 0 0 1-8.32 3.02ZM392.09 433.12a9.68 9.68 0 0 1-8.11-4.46l-.12-.18.29-.26c.75-4.07 4.26-7.7 9-9.26 4.28-1.41 9-1.18 13.18-1a2.78 2.78 0 0 1 1.73 4.85l-4.69 4.24c-3.41 3.07-6.81 5.85-10.91 6.05Z" class="cls-7"/><path d="M377.53 437.65c-.69-5.16-1.4-10.38-.92-15.59a24.77 24.77 0 0 1 4.59-12.86 20.88 20.88 0 0 1 5.37-5c.53-.34 1 .53.49.87a20.25 20.25 0 0 0-7.86 9.73 33.39 33.39 0 0 0-1.69 14c.18 2.86.56 5.7.94 8.54a.53.53 0 0 1-.34.62.49.49 0 0 1-.61-.35Z" class="cls-1"/><path d="M375.57 440.62c3.34-6 7.2-12.74 14.11-14.88a15.51 15.51 0 0 1 5.94-.63c.63.06.47 1.05-.16 1a14.38 14.38 0 0 0-9.47 2.56 25 25 0 0 0-6.51 7.18c-1.08 1.68-2 3.43-3 5.18-.31.55-1.21.15-.9-.41Z" class="cls-1"/><path d="m374.07 440.53 3.37.07-20.3-108.43-3.37.63 5.3 28.13H342l5.3-28.13-3.37-.63L323.8 440.6l3.2-.07 10.58-56.16h25.91Zm-35.7-60.33 2.83-15.1h18.65l2.85 15.1Z" class="cls-8"/><path d="M227.08 311.94v-35.61c0-1 1.63-1.91 3.64-1.91s3.65.86 3.65 1.91v35.61c0 1.06-1.64 1.92-3.65 1.92s-3.64-.86-3.64-1.92ZM218.36 311.94v-35.61c0-1 1.63-1.91 3.64-1.91s3.65.86 3.65 1.91v35.61c0 1.06-1.64 1.92-3.65 1.92s-3.64-.86-3.64-1.92ZM209.63 311.94v-35.61c0-1 1.64-1.91 3.65-1.91s3.64.86 3.64 1.91v35.61c0 1.06-1.63 1.92-3.64 1.92s-3.65-.86-3.65-1.92Z" class="cls-6"/><path d="M283.01 285.8a.75.75 0 0 0-.34-.54l-27.47-18.18a2.09 2.09 0 0 0 1-.87 2.08 2.08 0 0 0-.77-2.84l-2.25-1.3a2.1 2.1 0 0 0-2.85.76 2 2 0 0 0-.26.85l-19.87-13.09a12 12 0 0 0-7.43-6.85v-5.78h-7.29v5.78a12 12 0 0 0-8.28 11.41v1.56h7.29a4.69 4.69 0 1 0 9.37 0h7.29v-1.56a11.87 11.87 0 0 0-.21-2.23l50.19 33.13-20.93 25.34h-.49c-1.66 0-3.27 0-4.81.1a1.82 1.82 0 0 0 .12-.8 2.08 2.08 0 0 0-2.19-2l-2.6.13a2.11 2.11 0 0 0-2 2.19 2.07 2.07 0 0 0 .29.93c-4.6.48-7.58 1.16-7.58 1.5 0 .56 8 0 18 0a.78.78 0 0 0 1 .48.79.79 0 0 0 .35-.24l.19-.24c10 0 17.95.56 17.95 0s-7.08-1.84-16.26-2.05l20.6-25.05a.76.76 0 0 0 .24-.54Z" class="cls-3"/><path d="M283.76 440.8H219.6a4.89 4.89 0 0 1-4.89-4.89V330.6a4.37 4.37 0 0 0-4.37-4.37H60.26a4.37 4.37 0 0 0-4.37 4.37v105.3a4.89 4.89 0 0 1-4.89 4.9h-2.2a4.9 4.9 0 0 1-4.89-4.89v-111a11.74 11.74 0 0 1 11.72-11.72h221.31a11.72 11.72 0 0 1 11.71 11.72v111a4.89 4.89 0 0 1-4.89 4.89Z" class="cls-9"/><path d="M214.97 340.54h73.42v3.12h-73.42zM214.97 382.72h73.42v3.12h-73.42z" class="cls-2"/><path d="m154.2 312.7-2.11-.89-1.44-10.58h-19.29l-1.57 10.57-1.89 1a.45.45 0 0 0-.2.6.46.46 0 0 0 .4.25h25.92a.45.45 0 0 0 .17-.86Z" class="cls-7"/><path d="M188.45 302.64H93.76a1.89 1.89 0 0 1-1.88-1.84v-13.39h98.44v13.39a1.88 1.88 0 0 1-1.87 1.84Z" class="cls-3"/><path d="M190.42 293.72H91.8v-57.14a2.26 2.26 0 0 1 2.26-2.26h94.14a2.26 2.26 0 0 1 2.26 2.26Z" class="cls-5"/><path d="M184.53 289.57H97.69a1.76 1.76 0 0 1-1.75-1.77v-47.59a1.76 1.76 0 0 1 1.75-1.74h86.84a1.76 1.76 0 0 1 1.75 1.74v47.59a1.76 1.76 0 0 1-1.75 1.77Z" class="cls-2"/><path d="M281.89 243.93a5.75 5.75 0 0 1 6.5 4.87 5.65 5.65 0 0 1 .05 1l19 7.33-8.62 6.16-16.76-7.9a5.78 5.78 0 0 1-.21-11.47Z" class="cls-10"/><path d="m354.2 240.34 3.22 5.85a16.76 16.76 0 0 1-5.7 9.48c-4.94 4.16-30.72 19.65-30.72 19.65l-32.56-16.34 5.7-7.57 25.56 8.57a83.76 83.76 0 0 1 33.41-19.32Z" class="cls-9"/><ellipse cx="348.19" cy="328.96" class="cls-8" rx="25.41" ry="8.28"/><path d="m291.2 433.51-6.75-1.87 3.98-26.91 9.96 2.76-7.19 26.02z" class="cls-10"/><path d="m291.11 440.53-21.76-6 .08-.27a8.79 8.79 0 0 1 10.77-6.15l13.33 3.69Z" class="cls-11"/><path d="m271.64 433.6-6.41-2.83 7.86-26.04 9.45 4.17-10.9 24.7z" class="cls-10"/><path d="m270.53 440.53-20.65-9.12.12-.26a8.78 8.78 0 0 1 11.58-4.49l12.62 5.57ZM367.97 308.73s3.39 10.51-17.43 23.81l-26.82 26.72-27.87 66.66-16.54-7.42 3.24-8.66 2.18-5.81 1.12-3 1.19-3.19 17.71-47.28 14.88-26 .43-14.14 3.66-10 26.55-9.42Z" class="cls-11"/><path d="M354.43 309.25s3.39 10.51-17.43 23.81l-26.8 26.74-27.87 66.66-16.54-7.42 3.25-8.66 2.17-5.81 1.12-3 1.19-3.19 17.68-47.27 5-8.72a159.29 159.29 0 0 1 23.77-31.67l4.89-5 .52-7.81 11.36-6.32Z" class="cls-11"/><path d="m338.38 257.8 8.34-17.7 14.54-2a48.85 48.85 0 0 1 8.37 34.79 165.09 165.09 0 0 0-2.08 21.87c0 1.77 1.53 2.57 1.56 4.17s-2.94 4.14-2.09 5.2a9.12 9.12 0 0 1 2.09 5.21c-1 2.46-32.26-10.85-45.39-8.87Z" class="cls-9"/><circle cx="347.73" cy="222.44" r="13.15" class="cls-10"/><path d="M356.14 217.73c0 .34-.06.8-.1 1.32a6.91 6.91 0 0 0 1.14 4c.74 1.24-.14 8.76-.14 8.76 21.54-15 4.52-30.1-2.14-28.76.14-1.91-5.29-1.16-5.29-1.16-2.07-3.22-6.6 1.06-6.6 1.06l.87-1.47c-3.52.89-7 11.77-7 11.77 1.2 4.7 19.4 2.55 19.26 4.48Z" class="cls-11"/><path d="M272.57 264.73a120.4 120.4 0 0 0 17.35-32.38 3.08 3.08 0 0 0-1.46-3.73l-25.33-13.58a3.1 3.1 0 0 0-4.46 2 73.77 73.77 0 0 1-16.18 30.2 3.13 3.13 0 0 0-.75 2.62 3.09 3.09 0 0 0 1.58 2.18l25.33 13.57a3.09 3.09 0 0 0 3.92-.88Z" class="cls-3"/><path d="M270.84 263.44a.94.94 0 0 1-1.17.24l-25.33-13.58a.91.91 0 0 1-.47-.64 1 1 0 0 1 .24-.82 75.85 75.85 0 0 0 16.65-31.08.93.93 0 0 1 .55-.64.87.87 0 0 1 .8 0l25.33 13.57a1 1 0 0 1 .45 1.11 118.75 118.75 0 0 1-17.05 31.84Z" class="cls-2"/><path d="m261.98 229.85 17.47 10.24a1.57 1.57 0 0 0 1.58-2.7l-17.47-10.24a1.57 1.57 0 0 0-1.58 2.7ZM258.86 235.57l17.47 10.23a1.56 1.56 0 0 0 1.58-2.69l-17.48-10.24a1.56 1.56 0 0 0-1.57 2.69ZM255.2 241.8l17.47 10.24a1.56 1.56 0 0 0 1.58-2.69l-17.47-10.25a1.57 1.57 0 0 0-1.58 2.7ZM251.57 247.03l17.47 10.24a1.57 1.57 0 0 0 1.58-2.7l-17.48-10.24a1.562 1.562 0 0 0-1.57 2.7ZM331.2 307.27l6.56 14.75a2.32 2.32 0 0 1-.16 2.21 2.35 2.35 0 0 1-2.37 1.05l-.45-.12a2.36 2.36 0 0 1-1.3-1.24l-6.56-14.75a2.343 2.343 0 0 1 4.28-1.91Z" class="cls-4"/><path d="m337.25 320.8 1.31 3 .67 4.22a1.27 1.27 0 0 1-2.25 1l-2.72-3.39-1.3-2.91ZM325.48 303.16l.93 5.91a1.29 1.29 0 0 0 1.47 1.06 1.31 1.31 0 0 0 .32-.1l.93-.41 1.8 4a.51.51 0 0 0 .68.27.53.53 0 0 0 .27-.69l-1.8-4 .93-.42a1.28 1.28 0 0 0 .65-1.68 1.69 1.69 0 0 0-.17-.29l-3.76-4.65a1.28 1.28 0 0 0-1.8-.19 1.26 1.26 0 0 0-.45 1.19Z" class="cls-5"/><path d="M328.2 313.8a5.72 5.72 0 0 1 7.64-4.37l12.94-15.77 3.14 10.14-12.78 13.42a5.77 5.77 0 0 1-10.94-3.42Z" class="cls-10"/><path d="m344.5 312.8-5.71-8.24 16.2-21.59-8.34-17.88.6-21.26 6.9-1.28.08.05a16.88 16.88 0 0 1 7.34 8.55c1.72 4.3 5.56 20.44 7.7 29.67a10.76 10.76 0 0 1-2.9 10.1Z" class="cls-9"/><path d="M183.92 272.99a8.16 8.16 0 0 0 0 1.21l-29.2 21.24-8-3.55-6.94 11.41 13.59 7.66a5.84 5.84 0 0 0 6.93-.9l29.39-28.71a7.61 7.61 0 1 0-5.71-8.36Z" class="cls-12"/><path d="m153.73 296.22-8.53 14.19a3.28 3.28 0 0 1-4.5 1.12 3.48 3.48 0 0 1-.39-.28l-12.73-10.45a9.1 9.1 0 0 1 9.41-15.57l15.19 6.3a3.28 3.28 0 0 1 1.77 4.28 2.49 2.49 0 0 1-.22.43Z" class="cls-4"/><path d="M117.25 391.88h16.69v27.66h-16.69z" class="cls-8"/><path d="m130.965 409.684 2.145-3.161 40.058 27.182-2.145 3.161zM78.028 433.696l40.058-27.183 2.145 3.161-40.058 27.183z" class="cls-8"/><circle cx="172.09" cy="435.28" r="5.25" class="cls-8"/><circle cx="125.36" cy="435.28" r="5.25" class="cls-8"/><circle cx="79.1" cy="435.28" r="5.25" class="cls-8"/><path d="M123.45 408.1h3.81v27.18h-3.81zM122.02 367.56h7.15v36.72h-7.15z" class="cls-8"/><path d="M105.09 373.29v-8.59a6 6 0 0 1 6-6h32a6 6 0 0 1 6 6v8.59a6 6 0 0 1-6 6h-32a6 6 0 0 1-6-6Z" class="cls-5"/><path d="M162.8 431.96h8.83l4.21-22.92H162.8v22.92z" class="cls-13"/><path d="M160.54 440.53h28.49v-.36a11.08 11.08 0 0 0-11.08-11.09h-17.41ZM176.01 417.8l17.62-39.5a14.48 14.48 0 0 0-6.36-18.59l-38.21-20.49-17.43-1.48-16.09-1.46-.11.2c-.15.25-3.61 6.22-1.27 12.77 1.77 5 6.38 8.85 13.71 11.53 17.09 6.27 36.83 11.63 44.53 13.64a2.45 2.45 0 0 1 1.59 1.27 2.48 2.48 0 0 1 .14 2l-16.36 36.77a3.24 3.24 0 0 0 1.93 4.16 3.29 3.29 0 0 0 .81.19l12.23.89h.31a3.24 3.24 0 0 0 2.96-1.9Z" class="cls-11"/><path d="M157.03 431.96h8.84l4.2-22.92h-13.04v22.92z" class="cls-13"/><path d="M154.78 440.53h28.49v-.36a11.09 11.09 0 0 0-11.07-11.09h-17.4ZM169.53 419.91l17.61-39.5a14.47 14.47 0 0 0-6.35-18.61l-38.21-20.49-17.44-1.49-12.6-1.02v-.17c-.15.25-3.61 6.22-1.27 12.77 1.77 5 2.78 8.85 10.1 11.53 17.09 6.27 36.84 11.63 44.53 13.64a2.52 2.52 0 0 1 1.6 1.27 2.58 2.58 0 0 1 .14 2l-16.37 36.76a3.26 3.26 0 0 0 1.93 4.2 3.75 3.75 0 0 0 .82.18l12.23.89h.31a3.26 3.26 0 0 0 2.97-1.96Z" class="cls-11"/><circle cx="141.25" cy="245.67" r="17.7" class="cls-13"/><path d="M202.27 313.68a120.43 120.43 0 0 0 17.36-32.38 3.09 3.09 0 0 0-1.47-3.73l-25.33-13.58a3 3 0 0 0-2.68-.11 3.14 3.14 0 0 0-1.78 2.08 73.67 73.67 0 0 1-16.17 30.19 3.12 3.12 0 0 0-.74 2.63 3.05 3.05 0 0 0 1.57 2.18l25.33 13.57a3.1 3.1 0 0 0 3.91-.85Z" class="cls-3"/><path d="M200.55 312.38a1 1 0 0 1-1.17.25l-25.33-13.58a.88.88 0 0 1-.47-.64.94.94 0 0 1 .23-.82 75.92 75.92 0 0 0 16.65-31.08.93.93 0 0 1 .55-.64.87.87 0 0 1 .8 0l25.33 13.57a1 1 0 0 1 .45 1.11 118.66 118.66 0 0 1-17.04 31.83Z" class="cls-2"/><path d="m191.68 278.8 17.52 10.23a1.56 1.56 0 0 0 1.58-2.69l-17.52-10.24a1.56 1.56 0 0 0-1.58 2.69ZM188.56 284.52l17.47 10.28a1.57 1.57 0 0 0 1.58-2.7l-17.47-10.3a1.57 1.57 0 0 0-1.58 2.7ZM186.1 290.23l15.89 9.43c1.58.94 3.28-1 1.7-1.94l-15.89-9.43c-1.6-.94-3.27 1-1.7 1.94ZM181.27 295.98l17.47 10.24a1.57 1.57 0 0 0 1.58-2.7l-17.47-10.24a1.57 1.57 0 0 0-1.58 2.7Z" class="cls-3"/><path d="m151.46 340.61-35-.21v-.25c-.67-17.58 1.48-33.5 6.57-48.67.07-.57.15-1.18.22-1.78.87-6.79 1.56-12.18 8-14.18a4.55 4.55 0 0 1-.91-2.47 4.47 4.47 0 0 1 1.11-3.28 4.3 4.3 0 0 1 3-1.46l12.47-.43a3 3 0 0 1 1.81.62 5 5 0 0 1 1.47 6.3 4.57 4.57 0 0 0-.23.48 37.52 37.52 0 0 0 3.15 8c2 4.18 4.26 8.92 4.84 14a25.68 25.68 0 0 1-.39 8.2 16.22 16.22 0 0 0-.18 4.4c.12 2.18.22 4.23-1 6.22-.31.54-.67 1.11-1.09 1.75l-1.73 4.14Z" class="cls-4"/><path d="M98.89 365.21v-71.58a8.81 8.81 0 0 1 8.8-8.8h2.43a8.81 8.81 0 0 1 8.8 8.8v71.58a8.8 8.8 0 0 1-8.8 8.79h-2.43a8.8 8.8 0 0 1-8.8-8.79Z" class="cls-5"/><path d="M192.83 300.8a7.27 7.27 0 0 0-.67 1l-36 2.63-4.96-7.28-11.91 6 7.5 13.69a5.83 5.83 0 0 0 6.41 2.96l40.11-8.87a7.65 7.65 0 1 0 .21-10.81 8.57 8.57 0 0 0-.69.68Z" class="cls-12"/><path d="m154.93 304.56-14.73 7.56a3.28 3.28 0 0 1-4.41-1.42 3.57 3.57 0 0 1-.19-.45l-5.3-15.62a9.1 9.1 0 0 1 4-12.2c-6.52 3.35 7.07-6.17 12.25 3.94l9.58 13.37a3.28 3.28 0 0 1-.76 4.57 3.45 3.45 0 0 1-.41.25Z" class="cls-4"/><path d="M133.26 262.89a6 6 0 0 1-3.57-1.56 22.66 22.66 0 0 1-6.91-26.53 15.13 15.13 0 0 1 5.88-7.26 19.7 19.7 0 0 1 7.16-2.14c2-.3 4-.53 6-.7a17.16 17.16 0 0 1 7.58.61 18.82 18.82 0 0 1 4.87 3.1c.52.41 1.07.83 1.61 1.23a11.69 11.69 0 0 0 4.44 2.15 2.46 2.46 0 0 1 1.8 3.24 1.93 1.93 0 0 0 0 1.89 1.68 1.68 0 0 0 1.41.72.87.87 0 0 1 .74.38.91.91 0 0 1 .1.83l-.07.18a1.11 1.11 0 0 1 .88.58 1.16 1.16 0 0 1-.21 1.44 11.68 11.68 0 0 1-5.69 3 11.15 11.15 0 0 1-4.42 0h-.24v-.26c-5.91-2.11-11.24 1.46-14.28 5.55l-.44-.28a1.2 1.2 0 0 0 .06-1 1.54 1.54 0 0 0-.76-.9 2 2 0 0 0-2.16.43 2.93 2.93 0 0 0-.8 2.23 8.09 8.09 0 0 0 .65 2.51c.14.38.29.77.41 1.16a9.59 9.59 0 0 1-.5 6.79 4.57 4.57 0 0 1-2.65 2.59 3.13 3.13 0 0 1-.89.02Z" class="cls-11"/><path d="M421 441.57H.62a.62.62 0 0 1-.62-.62.62.62 0 0 1 .62-.62H421a.61.61 0 0 1 .61.62.61.61 0 0 1-.61.62Z" class="cls-8"/><path d="M787.06 341.35h-14.69a2.1 2.1 0 0 1-1.64-.79 2.06 2.06 0 0 1-.4-1.73 39.93 39.93 0 0 0-.19-18.48 2.07 2.07 0 0 1 1.12-2.37c6.14-2.87 11.77-2.8 16.75.22a2.1 2.1 0 0 1 1 1.46 65.09 65.09 0 0 1 .12 19.9 2.07 2.07 0 0 1-2.07 1.79Z" class="cls-4"/><path d="M786.84 331.72H775.6a1.05 1.05 0 1 1 0-2.1h11.24a1.05 1.05 0 1 1 0 2.1ZM786.84 328.03H775.6a1.06 1.06 0 0 1 0-2.11h11.24a1.06 1.06 0 0 1 0 2.11Z" class="cls-2"/><circle cx="657.75" cy="364.82" r="6.01" class="cls-1"/><path d="M704.12 388.45c-2.53-19.36-14.66-38.36-33.17-44.55a90 90 0 0 1 .39 61.75c-2.79 7.69-6.69 16-4 23.68 1.69 4.81 5.78 8.47 10.33 10.74s9.61 3.34 14.6 4.39l1 .8c7.8-17.9 13.38-37.46 10.85-56.81Z" class="cls-1"/><path d="M670.77 344.27a76.83 76.83 0 0 1 19.43 43.14 32.74 32.74 0 0 1-.31 10.36 19 19 0 0 1-4.66 8.84c-2.12 2.35-4.55 4.51-6.05 7.34a11.6 11.6 0 0 0-.51 9.49c1.37 3.85 4 7 6.76 9.94 3 3.3 6.2 6.67 7.5 11.05.16.53 1 .26.82-.27-2.27-7.63-9.71-11.92-13.3-18.78-1.67-3.2-2.38-6.93-.86-10.33 1.34-3 3.84-5.2 6-7.56a20.24 20.24 0 0 0 4.89-8.47 30.88 30.88 0 0 0 .71-10.32 74.71 74.71 0 0 0-5.6-22.63 78 78 0 0 0-14.21-22.45c-.37-.41-.93.24-.56.65Z" class="cls-2"/><path d="M689.89 382.2a11.53 11.53 0 0 0 8.7-12.13c0-.56-.91-.51-.86 0a10.69 10.69 0 0 1-8.12 11.28c-.53.17-.26.98.28.85ZM686.41 405.56a22.21 22.21 0 0 1-10-12.74c-.16-.53-1-.25-.82.28a23.14 23.14 0 0 0 10.44 13.23c.48.28.86-.49.39-.77ZM681.33 358.65a6.51 6.51 0 0 1-6.19-.27c-.47-.29-.85.49-.38.77a7.33 7.33 0 0 0 6.84.32.44.44 0 0 0 .27-.55.43.43 0 0 0-.54-.27Z" class="cls-2"/><path d="m614.86 378.86.88.57a85.81 85.81 0 0 1 11 8.51l.81.73a90.46 90.46 0 0 1 19.85 26.82 86.39 86.39 0 0 1 4.9 12.44c1.82 5.89 3.32 12.42 6.87 17.23a16.54 16.54 0 0 0 1.19 1.44l31.82-.2.22-.1 1.27.05c0-.23-.11-.46-.16-.69s-.07-.26-.1-.39l-.06-.25v-.08a1.89 1.89 0 0 1 0-.23c-.33-1.29-.67-2.59-1-3.89a129.26 129.26 0 0 0-11.15-28.54c-.14-.26-.29-.54-.45-.81a84.36 84.36 0 0 0-7.55-11.39 73.77 73.77 0 0 0-5-5.62 61.62 61.62 0 0 0-15.53-11.48c-11.45-5.95-24.68-8.18-36.85-4.42Z" class="cls-1"/><path d="M614.94 379.26a77 77 0 0 1 41.45 22.77 33 33 0 0 1 6 8.47 19.1 19.1 0 0 1 1.6 9.86c-.28 3.15-.92 6.34-.42 9.51a11.66 11.66 0 0 0 5.31 7.88c3.41 2.25 7.43 3.14 11.38 3.87 4.39.81 9 1.59 12.65 4.31.44.32.93-.39.48-.72-6.4-4.72-14.93-3.67-21.92-7-3.26-1.55-6.07-4.09-6.9-7.72-.73-3.18-.07-6.47.24-9.66a20.42 20.42 0 0 0-1.2-9.7 30.67 30.67 0 0 0-5.65-8.66 74.51 74.51 0 0 0-18.1-14.67 78.35 78.35 0 0 0-24.86-9.38c-.55-.12-.6.74-.06.84Z" class="cls-2"/><path d="M653.04 398.04a11.53 11.53 0 0 0-.36-14.93c-.37-.41-1 .14-.65.55a10.68 10.68 0 0 1 .3 13.89c-.35.43.36.91.71.49ZM664.32 418.8a22.24 22.24 0 0 1-15.66-4.14c-.44-.33-.93.38-.48.71a23.07 23.07 0 0 0 16.3 4.28c.55-.07.39-.91-.16-.85ZM632.03 384.39a6.56 6.56 0 0 1-5.11 3.51c-.55 0-.39.9.16.84a7.32 7.32 0 0 0 5.66-3.87.43.43 0 0 0-.11-.59.42.42 0 0 0-.6.11Z" class="cls-2"/><path d="m767.5 312.8-4.3-41.65-1.13-17.14 12-2.18s1.81 11.79 3.38 18.7-2.07 41.36-2.17 42.27a5.86 5.86 0 1 1-8.27.47 4 4 0 0 1 .46-.46Z" class="cls-13"/><path d="M718.27 440.71h-6.13l-2.91-23.64h9.04v23.64z" class="cls-12"/><path d="M719.83 446.65h-19.76v-.25a7.71 7.71 0 0 1 7.7-7.69l3.61-2.74 6.73 2.74h1.72Z" class="cls-11"/><path d="M772.28 440.71h-6.13l-2.91-23.64h9.04v23.64z" class="cls-12"/><path d="M773.84 446.65h-19.76v-.25a7.7 7.7 0 0 1 7.69-7.69l3.61-2.74 6.74 2.74h1.72ZM762.96 314.21l5.15 49s6.86 49 5.58 55.8.32 7.73.32 7.73l-11.76-.84s.32-4.19-1.61-6.12-1-7.73-1-7.73l-22.8-79.76-13.86 41.88s-2.25 46.06-2.57 46.71-1.29 9.34-1.29 9.34H707.2s1.61-5.16-.64-6.77-4.19-.32-2.26-3.22 2.58-6.44 1.93-8.05-.64-8.06-.64-8.06 1-87 6.44-89.87 50.93-.04 50.93-.04Z" class="cls-11"/><circle cx="738.55" cy="202.39" r="12.68" class="cls-13"/><path d="m776.13 258.48-12.47 4.47-3.79 1.36-2.77-35.41 9.51 5.05a25.44 25.44 0 0 1 4.09 6.08c5.26 10.64 5.43 18.45 5.43 18.45Z" class="cls-5"/><path d="M690.2 309.8s12.67-39.37 12.9-39.85c1.66-12.6 6.43-18.16 7.14-17.56l12.33 4.27s-3.67 11.61-6.15 18.5c-2.37 6.59-18.61 37-19.07 37.79a5.86 5.86 0 1 1-7.75-2.92 4.92 4.92 0 0 1 .6-.23Z" class="cls-13"/><path d="M728.52 231.18s-10.66-5.22-14.8 5c-2.71 6.93-4 10-5.8 17.16 0 0 10.87 1.63 14.36 7.78Z" class="cls-5"/><path d="M767.34 319.55c-24.55 5.07-57.09-3.65-57.09-3.65l8.68-37.62-3.08-39.37a10.7 10.7 0 0 1 6.63-10.93l5.89-2.21 4.87-7 13.91.46 5.56 7.32 4.39 2.32 9.51 5.05-3 29-1.8 17.45s5.47 19.64 4.35 22.24-.15 1.35.13 2.74 1.1 1.48 1.23 4.21-.18 9.99-.18 9.99Z" class="cls-5"/><path d="M752.3 197.88c-1-1 .51-3.61.22-5-.32-1.58-2.06-1.63-2.48-3.19s-2.23-2.59-3.89-3.12a25.08 25.08 0 0 0-13.09-.6 50.83 50.83 0 0 0-5.67 1.74c-1.28.45 0-.77-1.32-.32a2 2 0 0 0-1.2.79c-.23.44.08 1.13.56 1l-4.68 2.06c.87.92 1.75 1.84 2.63 2.75a1.84 1.84 0 0 0-2.09 2.33 2.63 2.63 0 0 0 2 1.39c1.4.28.34 1.62 1.77 1.59s11.42-3 12.12-1.71c.49.89.44 2.07 1.15 2.81.9.94 2.48.59 3.64 0s2.32-1.45 3.62-1.31 2.37 2.66 2.71 4a10.3 10.3 0 0 1-.09 4.06c-.28 1.77-3.07 3.53-3.35 5.3 3.1.86 6.42-1.87 7.64-6.61-.1-2.96 1.94-5.86-.2-7.96Z" class="cls-11"/><path d="M556.55 368.35h-11.24a1.06 1.06 0 0 1-1.05-1.06 1 1 0 0 1 1.05-1.05h11.24a1.05 1.05 0 0 1 1 1.06 1.07 1.07 0 0 1-1 1.05Z" class="cls-2"/><path d="M796.56 447.07H660.05a.42.42 0 0 1-.43-.42.43.43 0 0 1 .43-.43h136.51a.43.43 0 0 1 .42.43.42.42 0 0 1-.42.42Z" class="cls-3"/><circle cx="174.74" cy="86.32" r="78.08" class="cls-1"/><circle cx="265.3" cy="147.31" r="14.78" class="cls-1"/><path d="M237.2 187.05a75.35 75.35 0 0 1-74.59-65.81l.92-.12a74.31 74.31 0 0 0 147.4-18.62l.92-.12a75.28 75.28 0 0 1-74.65 84.67Z" class="cls-5"/><path d="M239.2 202.5h-14.73a2.1 2.1 0 0 1-1.64-.79 2 2 0 0 1-.39-1.73 40 40 0 0 0-.24-18.66 2 2 0 0 1 .9-2.25c5.08-3.15 10.62-3.06 16.92.3a2.06 2.06 0 0 1 1.09 1.51 65.27 65.27 0 0 1 .11 19.83 2.07 2.07 0 0 1-2.02 1.79Z" class="cls-4"/><path d="M172.2 123.96h-14.72a2.1 2.1 0 0 1-1.64-.79 2.06 2.06 0 0 1-.4-1.73 39.94 39.94 0 0 0-.25-18.73 2.07 2.07 0 0 1 .81-2.19c7.55-5.43 13.5-5.27 17.68.47a2.06 2.06 0 0 1 .37.89 65.43 65.43 0 0 1 .18 20.29 2.07 2.07 0 0 1-2.03 1.79Z" class="cls-3"/><path d="M232.3 188.71h-5.1a1.06 1.06 0 0 1 0-2.11h5.06a1.06 1.06 0 0 1 0 2.11ZM167.61 109.24h-5a1.05 1.05 0 0 1 0-2.1h5a1 1 0 0 1 1.05 1 1 1 0 0 1-1.05 1.1ZM167.61 112.94h-5a1.06 1.06 0 0 1 0-2.11h5a1.06 1.06 0 0 1 0 2.11ZM167.61 116.64h-5a1.06 1.06 0 0 1-1.05-1.06 1 1 0 0 1 1.05-1h5a1 1 0 0 1 1.05 1.06 1.06 1.06 0 0 1-1.05 1Z" class="cls-2"/><path d="M342.87 94.89h-47a4.75 4.75 0 0 1-4.75-4.75V61.22a4.75 4.75 0 0 1 4.75-4.75h47a4.75 4.75 0 0 1 4.75 4.75v28.92a4.75 4.75 0 0 1-4.75 4.75Z" class="cls-7"/><path d="M324.2 91.17h-25a4.46 4.46 0 0 1-4.44-4.45V64.64a4.46 4.46 0 0 1 4.44-4.45h40.37a4.47 4.47 0 0 1 4.45 4.45v6.72a19.85 19.85 0 0 1-19.82 19.81Z" class="cls-2"/><path d="M335.54 72.28H303.2a1.05 1.05 0 0 1 0-2.1h32.31a1.05 1.05 0 1 1 0 2.1ZM308.28 76.45h-5.08a1.06 1.06 0 0 1 0-2.11h5.05a1.06 1.06 0 0 1 0 2.11ZM317.2 80.61h-14a1 1 0 0 1-1-1 1.06 1.06 0 0 1 1-1.06h14a1.06 1.06 0 0 1 0 2.11Z" class="cls-4"/><circle cx="316.57" cy="102.31" r="9.94" class="cls-5"/><path d="M204.1 26.73a25.91 25.91 0 0 1 50.84 10l-.9-.18a25 25 0 0 0-49-9.67Z" class="cls-5"/><path d="m213.94 43.08-14.69.61a2.11 2.11 0 0 1-1.66-.72 2 2 0 0 1-.47-1.71 39.89 39.89 0 0 0-.92-18.46 2.07 2.07 0 0 1 1-2.42c6-3.12 11.65-3.28 16.75-.47a2.12 2.12 0 0 1 1.05 1.42 65.66 65.66 0 0 1 .94 19.88 2.07 2.07 0 0 1-2 1.87Z" class="cls-4"/><path d="m213.31 33.47-11.22.47a1.07 1.07 0 0 1-.09-2.14l11.2-.44a1.06 1.06 0 0 1 .08 2.11ZM213.2 29.8l-11.22.46a1.051 1.051 0 1 1-.09-2.1l11.22-.47a1.05 1.05 0 0 1 1.1 1 1.07 1.07 0 0 1-1.01 1.11Z" class="cls-2"/><path d="M310.01 38.43h-47a4.75 4.75 0 0 1-4.74-4.75V4.8a4.75 4.75 0 0 1 4.74-4.75h47a4.76 4.76 0 0 1 4.75 4.75v28.88a4.75 4.75 0 0 1-4.75 4.75Z" class="cls-7"/><path d="M291.35 34.7h-25a4.44 4.44 0 0 1-4.45-4.44V8.18a4.45 4.45 0 0 1 4.45-4.45h40.36a4.45 4.45 0 0 1 4.49 4.45v6.72a19.82 19.82 0 0 1-19.85 19.8Z" class="cls-2"/><path d="M302.69 15.8h-32.32a1.06 1.06 0 0 1 0-2.11h32.32a1.06 1.06 0 0 1 0 2.11ZM275.43 19.98h-5.06a1.05 1.05 0 0 1 0-2.1h5.06a1.05 1.05 0 1 1 0 2.1ZM284.38 24.15h-14a1.06 1.06 0 0 1 0-2.11h14a1.06 1.06 0 0 1 0 2.11Z" class="cls-4"/><circle cx="255.44" cy="38.19" r="9.94" class="cls-5"/><path d="M123.08 115.71a43.442 43.442 0 1 1 81.26-30.75l-.86.33a42.52 42.52 0 0 0-79.54 30.09Z" class="cls-5"/><path d="M161.08 72.67h-14.69a2.05 2.05 0 0 1-2-2.51 40 40 0 0 0-.23-18.63 2.06 2.06 0 0 1 .95-2.28c5.32-3.1 11-3 16.89.28a2.07 2.07 0 0 1 1.06 1.5 65.15 65.15 0 0 1 .11 19.86 2.06 2.06 0 0 1-2.09 1.78Z" class="cls-4"/><path d="M154.2 58.42h-5a1.05 1.05 0 0 1-1.05-1.06 1.06 1.06 0 0 1 1.05-1h5a1.06 1.06 0 0 1 0 2.11ZM160.4 62.59h-11.2a1.06 1.06 0 0 1 0-2.11h11.2a1.05 1.05 0 0 1 1.05 1.06 1.06 1.06 0 0 1-1.05 1.05Z" class="cls-2"/><path d="M112.74 115.12h-47a4.74 4.74 0 0 1-4.74-4.74V81.45a4.74 4.74 0 0 1 4.74-4.75h47a4.74 4.74 0 0 1 4.74 4.75v28.93a4.74 4.74 0 0 1-4.74 4.74Z" class="cls-7"/><path d="M94.07 111.4h-25a4.46 4.46 0 0 1-4.45-4.45V84.87a4.46 4.46 0 0 1 4.45-4.45h40.36a4.46 4.46 0 0 1 4.45 4.45v6.72a19.84 19.84 0 0 1-19.81 19.81Z" class="cls-2"/><path d="M105.41 92.51H73.09a1.05 1.05 0 0 1 0-2.1h32.32a1.05 1.05 0 1 1 0 2.1ZM78.2 96.68h-5.11a1.06 1.06 0 0 1 0-2.11h5.11a1.06 1.06 0 0 1 0 2.11ZM87.1 100.8h-14a1.05 1.05 0 1 1 0-2.1h14a1.05 1.05 0 1 1 0 2.1Z" class="cls-4"/><circle cx="122.84" cy="113.96" r="9.94" class="cls-5"/><path d="M211.24 112.6h-14.69a2.1 2.1 0 0 1-1.64-.79 2 2 0 0 1-.39-1.73 40 40 0 0 0-.23-18.59 2.08 2.08 0 0 1 1-2.3c7.14-4.09 12.79-4 17.28.34a2 2 0 0 1 .59 1.15 65 65 0 0 1 .16 20.13 2.08 2.08 0 0 1-2.08 1.79Z" style="fill:#ff6584" transform="translate(.2 -12.2)"/><path d="M205.5 86.6h-5.06a1 1 0 0 1-1.05-1 1.06 1.06 0 0 1 1.05-1h5.06a1.05 1.05 0 0 1 0 2.1ZM211.68 90.8h-11.24a1.06 1.06 0 0 1 0-2.11h11.24a1.06 1.06 0 0 1 0 2.11Z" class="cls-2"/><path d="M513.75 289.8a20.73 20.73 0 0 1-6.3 15.46c-2.93 2.8-7.44 6.72-7.44 10.87v3.44h-13.74v-3.44c0-4.19-4.53-8.12-7.44-10.87a21.2 21.2 0 0 1-6.3-15.46v-.12a20.61 20.61 0 0 1 41.22.12Z" class="cls-4"/><path id="ecc2cf6c-8ee8-498c-972d-3c77e28b77e9-273" d="M499.81 332.26a.48.48 0 0 1-.48-.48v-3.44c0-4 4-7.8 6.88-10.55l.71-.67a20.32 20.32 0 0 0 6.14-15.12 19.91 19.91 0 0 0-20.12-20.12h-.06a20.09 20.09 0 0 0-20.06 20v.12a20.74 20.74 0 0 0 6.18 15.12l.62.58c2.94 2.75 7 6.53 7 10.64v3.44a.48.48 0 0 1-1 0v-3.44c0-3.69-3.86-7.3-6.67-9.94l-.62-.58a21.68 21.68 0 0 1-6.48-15.82v-.11a21 21 0 0 1 21-21h.06a21 21 0 0 1 21.09 20.9v.21a21.26 21.26 0 0 1-6.45 15.81l-.7.67c-2.78 2.63-6.59 6.23-6.59 9.85v3.44a.49.49 0 0 1-.48.48Z" class="cls-5" transform="translate(.2 -12.2)"/><path id="b22bef41-3cd7-4c1e-881c-c9a642005cb0-274" d="M497.52 338.45h-9.16a.81.81 0 0 1 0-1.61h9.16a.81.81 0 0 1 0 1.61Z" class="cls-4" transform="translate(.2 -12.2)"/><path d="M494.12 331.63h-2a3.81 3.81 0 0 1-1.94-.54.45.45 0 0 1-.2-.52.46.46 0 0 1 .45-.34h5.36a.46.46 0 0 1 .45.34.45.45 0 0 1-.2.52 3.82 3.82 0 0 1-1.92.54ZM497.72 328.8h-9.21v-.06a.75.75 0 0 1 .14-.65.79.79 0 0 1 .62-.3h7.8a.76.76 0 0 1 .61.3.74.74 0 0 1 .15.64v.07Z" class="cls-5"/><path id="e0eb6627-54a4-4797-861b-0d156b8b485b-275" d="M471.63 283.08a.77.77 0 0 1-.52-.2l-6.9-6a.8.8 0 0 1 1.05-1.21l6.9 6a.8.8 0 0 1 .08 1.13.78.78 0 0 1-.61.28Z" class="cls-9" transform="translate(.2 -12.2)"/><path id="e13fc22b-cd18-4b6e-a2d4-df4b74c6b7e7-276" d="M513.1 283.08a.81.81 0 0 1-.53-1.41l6.9-6a.8.8 0 0 1 1.06 1.21l-6.9 6a.79.79 0 0 1-.53.2Z" class="cls-9" transform="translate(.2 -12.2)"/><path id="a74da646-4683-465e-97fe-dd817e7fc328-277" d="M499.81 335.59h-13.74a.8.8 0 1 1 0-1.6h13.74a.8.8 0 1 1 0 1.6Z" class="cls-4" transform="translate(.2 -12.2)"/><path d="m492.8 302.41-2.85 17.17h-1.64l2.89-17.44a.801.801 0 1 1 1.58.27ZM498.29 319.58h-1.63l-2.86-17.17a.81.81 0 0 1 1.59-.27Z" class="cls-7"/><path id="be3a5c8a-fbb4-472c-819b-e8dd06032f6a-278" d="M487.72 314a.8.8 0 0 1 .8-.8h8.84a.81.81 0 0 1 0 1.61h-8.84a.8.8 0 0 1-.8-.81Z" class="cls-7" transform="translate(.2 -12.2)"/><path id="e9f776ed-f4b6-47dc-b212-c247d99ecb23-279" d="M492.94 275.06a.8.8 0 0 1-.8-.81v-13.73a.8.8 0 1 1 1.6 0v13.73a.8.8 0 0 1-.8.81Z" class="cls-9" transform="translate(.2 -12.2)"/><path d="M461.59 154.55h-54.34c-3.83 0-6.94-3.38-6.95-7.56V77.55c0-4.17 3.12-7.55 6.95-7.56h50.56l10.73 9.31v67.69c0 4.18-3.11 7.56-6.95 7.56Z" class="cls-7"/><path d="M407.25 72.17a5.19 5.19 0 0 0-4.95 5.38v69.44a5.2 5.2 0 0 0 4.95 5.39h54.34a5.19 5.19 0 0 0 4.95-5.39V80.35l-9.43-8.18Z" class="cls-2"/><path d="M450.25 92.36h-36.43a1.26 1.26 0 0 1 0-2.52h36.44a1.26 1.26 0 0 1 0 2.52ZM455.03 96.61h-41.21a1.26 1.26 0 0 1 0-2.52h41.21a1.26 1.26 0 0 1 0 2.52Z" class="cls-3"/><path d="M450.25 111.41h-36.43a1.26 1.26 0 0 1 0-2.52h36.44a1.26 1.26 0 0 1 0 2.52Z" class="cls-4"/><path d="M455.03 115.66h-41.21a1.26 1.26 0 0 1 0-2.52h41.21a1.26 1.26 0 0 1 0 2.52ZM450.25 130.46h-36.43a1.26 1.26 0 0 1 0-2.52h36.43a1.26 1.26 0 0 1 0 2.52ZM455.03 134.71h-41.21a1.26 1.26 0 0 1 0-2.52h41.21a1.26 1.26 0 0 1 0 2.52Z" class="cls-3"/><path d="M468.33 79.6h-8.41a2.42 2.42 0 0 1-2.31-2.52v-6.75a.15.15 0 0 1 .14-.16.12.12 0 0 1 .09 0l10.58 9.12a.18.18 0 0 1 0 .22.14.14 0 0 1-.09.09Z" class="cls-7"/><path d="M415.54 75.96c0 9.55-7.11 17.29-15.89 17.29s-15.88-7.74-15.88-17.29 7.11-17.28 15.88-17.28 15.89 7.74 15.89 17.28Z" class="cls-2"/><path d="M407 78.92c-.18 11.06-15.29 11-15.46 0 .17-11.05 15.28-11.05 15.46 0Z" class="cls-4"/><path d="M398.96 82.35v-.31c2 .29 2.42-2.4.41-1.39l.46-3.65h.29l-.39 3.1c2.1-.3 1.32 2.57-.77 2.25ZM401.52 77.31h1.56v.31h-1.56zM396.61 77.31h1.56v.31h-1.56zM401.77 90.68c.3-2.23-2.09-1.79-3.36-1.81a1.44 1.44 0 0 0-1.37 1.5 1.63 1.63 0 0 0 0 .31 7.33 7.33 0 0 0-2.67 1.6 14.7 14.7 0 0 0 10.17.12 7.36 7.36 0 0 0-2.77-1.72ZM395.63 74.94c1.43-.9 3.17-.21 4.65.17 2.81.94 6.75-.24 7.09-3.87.35-3.39-3.9-5.27-5.26-1.91h.39c-4.41-7.13-12.08-6.86-12 2.94a.22.22 0 1 0 .44 0c-.17-5.78 3.35-9.73 8.32-6a15.39 15.39 0 0 1 2.9 3.31c.52.63.63-2.09 3.11-1.38 2.72 1.15 1.83 5.4-.6 6.33-3 1.67-6.27-1.57-9.23.07a.24.24 0 0 0-.06.32.19.19 0 0 0 .28.08Z" class="cls-11"/><path d="M399.65 93.72c-9 0-16.3-8-16.29-17.76s7.32-17.73 16.32-17.72 16.3 8 16.29 17.75c0 7.68-4.55 14.49-11.26 16.86a15.13 15.13 0 0 1-5.06.87Zm0-34.57c-8.53 0-15.45 7.53-15.45 16.81s6.91 16.84 15.45 16.84 15.45-7.52 15.46-16.81c-.01-9.31-6.91-16.83-15.46-16.84Z" class="cls-3"/><path d="M492.2 111.48c0 7.48-4.42 14.12-11 16.44l-.29.1c-.41.13-.83.25-1.26.35a15.38 15.38 0 0 1-2.34.36h-1a14.53 14.53 0 0 1-5.25-1l-.15-.06c-8.25-3.24-12.53-13.15-9.55-22.13s12.09-13.63 20.34-10.39c6.33 2.54 10.5 9.05 10.5 16.33Z" class="cls-2"/><ellipse cx="475.96" cy="114.52" class="cls-4" rx="7.73" ry="8.41"/><path d="M476.41 119.05v-.31a2.29 2.29 0 0 1-1.37-.34 1 1 0 0 1-.34-.71.56.56 0 0 1 .16-.46.84.84 0 0 1 .9 0l.24.12-.46-3.65h-.29l.39 3.1a1 1 0 0 0-1 .15.89.89 0 0 0-.27.71 1.28 1.28 0 0 0 .46 1 2.48 2.48 0 0 0 1.58.39ZM472.29 114.01h1.56v.31h-1.56zM477.2 114.01h1.56v.31h-1.56zM478.2 126.28v-.32a1.45 1.45 0 0 0-1.38-1.49h-2a1.43 1.43 0 0 0-1.37 1.49 1.66 1.66 0 0 0 0 .32 7.65 7.65 0 0 0-2.14 1.15l-.37.31.15.06a14.53 14.53 0 0 0 5.25 1h1a15.38 15.38 0 0 0 2.34-.36c.43-.1.85-.22 1.26-.35a7.69 7.69 0 0 0-2.74-1.81Z" class="cls-11"/><path d="M477.89 128.53a1 1 0 0 0-.52.2 15.38 15.38 0 0 0 2.34-.36ZM482.97 112.52l-13.43-5.34a.65.65 0 0 1-.34-.81v-.23c1-3.12 4.53-5.08 7.39-3.94l4.13 1.64c2.87 1.14 4.12 4.84 3.07 7.95l-.12.36a.57.57 0 0 1-.74.37Z" class="cls-11"/><path d="M483.69 112.8c-18.71.75-20.35-1.81-14.65-5.83l1.21-2.42 13.87 5.5Z" class="cls-11"/><ellipse cx="478.65" cy="115.27" class="cls-11" rx=".7" ry="1.24" transform="rotate(-70.62 470.144 109.022)"/><path d="M476.34 129.23a15 15 0 0 1-5.4-1l-.15-.06c-8.47-3.33-12.86-13.51-9.8-22.73s12.42-14 20.89-10.67 12.87 13.51 9.81 22.74a17 17 0 0 1-10.3 10.85l-.3.1c-.41.13-.84.26-1.29.36a15 15 0 0 1-2.4.37c-.35.03-.71.04-1.06.04Zm0-34.57c-8.54 0-15.46 7.53-15.45 16.82 0 7.09 4.08 13.41 10.2 15.82l.14.05a14.23 14.23 0 0 0 5.11.94h1a14.6 14.6 0 0 0 2.28-.35c.42-.1.83-.21 1.22-.34l.28-.1c8.12-2.88 12.55-12.37 9.91-21.2-2.07-6.95-8-11.64-14.69-11.64Z" class="cls-3"/><path d="M382.32 147.8a18.08 18.08 0 0 0 4.67 12.24l.38.4a16.07 16.07 0 0 0 2.52 2.09l.53.34a14.81 14.81 0 0 0 2.87 1.37l.52.17a14.72 14.72 0 0 0 9.65-.29l.18-.07c8.25-3.27 12.5-13.19 9.5-22.16s-12.12-13.6-20.36-10.34c-6.28 2.47-10.46 8.96-10.46 16.25Z" class="cls-2"/><path d="M394.85 156.25a5.62 5.62 0 0 1-1.27 3.63 3.42 3.42 0 0 1-3.26 1.35 2.47 2.47 0 0 1-1.93-2.62 1.84 1.84 0 0 1 1.91-1.81.93.93 0 0 1 .29 0 1.7 1.7 0 0 1 .61 2.77c-.21.19-.52-.14-.31-.33a1.22 1.22 0 0 0-.3-1.95 1.37 1.37 0 0 0-1.77 1.31 2 2 0 0 0 1.64 2.11 3 3 0 0 0 2.74-1.14 5.15 5.15 0 0 0 1.22-3.39.22.22 0 1 1 .43 0Z" class="cls-11"/><ellipse cx="399.09" cy="150.83" class="cls-4" rx="7.73" ry="8.41"/><path d="M398.69 154.43v-.32a2.22 2.22 0 0 0 1.37-.33 1 1 0 0 0 .34-.72.6.6 0 0 0-.16-.45.82.82 0 0 0-.9 0l-.24.12.46-3.64h.29l-.39 3.1a1 1 0 0 1 1 .15.88.88 0 0 1 .27.7 1.36 1.36 0 0 1-.46 1 2.56 2.56 0 0 1-1.58.39ZM401.25 149.38h1.56v.31h-1.56zM396.34 149.38h1.56v.31h-1.56zM393.81 164.39a14.72 14.72 0 0 0 9.65-.29l.18-.07a7.27 7.27 0 0 0-2.45-1.38 1.33 1.33 0 0 0 0-.74 1.38 1.38 0 0 0-1.32-1h-1.88a1.37 1.37 0 0 0-1.32 1 1.43 1.43 0 0 0 0 .74 7.51 7.51 0 0 0-2.18 1.16l-.39.32Z" class="cls-11"/><path d="M405.14 149.94c0 1.42.64 2.6 1.47 2.8h.26c1 0 1.74-1.26 1.74-2.83a3.69 3.69 0 0 0-.67-2.22 1.67 1.67 0 0 0-.51-.45 1.09 1.09 0 0 0-.56-.15 1.17 1.17 0 0 0-.74.27 3.29 3.29 0 0 0-.99 2.58ZM389.69 149.94a3.13 3.13 0 0 0 1.13 2.66 1.19 1.19 0 0 0 .6.17h.14c.89-.11 1.59-1.33 1.59-2.82a3.17 3.17 0 0 0-1.09-2.62 1.13 1.13 0 0 0-.64-.2 1.15 1.15 0 0 0-.56.15 1.67 1.67 0 0 0-.51.45 3.71 3.71 0 0 0-.66 2.21Z" class="cls-5"/><path d="M390.93 152.33a.23.23 0 0 0 .22-.24.17.17 0 0 0 0-.07c-1.49-4.81.89-10 5.31-11.64s9.22 1 10.7 5.78a10 10 0 0 1 .26 4.83.25.25 0 0 0 .17.28.23.23 0 0 0 .26-.19c1-5.22-2.06-10.35-6.86-11.45s-9.51 2.24-10.52 7.46a10.41 10.41 0 0 0 .27 5.08.21.21 0 0 0 .19.16Z" class="cls-5"/><path d="M402.97 145.39a1.27 1.27 0 0 1-.17 1.46 1.69 1.69 0 0 1-1.67.44 4.28 4.28 0 0 0-2-.21c-.57.19-1 .75-1.55.89a1 1 0 0 1-1.32-.65.22.22 0 1 1 .42-.12c.11.39.62.38.91.27.47-.17.83-.59 1.29-.79a2.58 2.58 0 0 1 1.67 0 2.47 2.47 0 0 0 1.65.12.82.82 0 0 0 .41-1.13.225.225 0 0 1 .38-.24Z" class="cls-11"/><path d="M398.2 165.54a15.12 15.12 0 0 1-4.52-.7l-.53-.17a16 16 0 0 1-2.95-1.41c-.18-.11-.36-.22-.54-.35a16.07 16.07 0 0 1-2.59-2.15l-.39-.4a18.89 18.89 0 0 1 0-25.11 15.4 15.4 0 0 1 23.08 0 18.89 18.89 0 0 1 0 25.11 16.26 16.26 0 0 1-6 4.15l-.18.07a15.19 15.19 0 0 1-5.38.96Zm0-34.58c-8.54 0-15.45 7.53-15.45 16.82a17.59 17.59 0 0 0 4.54 11.91c.12.13.24.26.37.38a15.34 15.34 0 0 0 2.45 2l.51.33a14.85 14.85 0 0 0 2.79 1.33l.51.17a14.33 14.33 0 0 0 9.39-.29l.17-.07c8-3.17 12.16-12.82 9.24-21.55-2.21-6.6-8.02-11.03-14.52-11.03Z" class="cls-3"/></svg>